# xmcd
#
# Track frame offsets:
#	150
#	14317
#	29216
#	45510
#	60401
#	76733
#	94876
#	116166
#	134727
#	151396
#	166233
#	185615
#	202768
#	222831
#	237873
#	257766
#	275902
#	292994
#
# Disc length: 4068 seconds
#
# Revision: 4
# Processed by: cddbd v1.5.2PL0 Copyright (c) Steve Scherf et al.
# Submitted via: EZCDAudioConverter 7.1.2.1
#
DISCID=030fe212
DTITLE=Mark Wills - The Definitive Collection
DYEAR=2007
DGENRE=Country
TTITLE0=Mark Wills - Jacob's Ladder
TTITLE1=Mark Wills - High Low And In Between
TTITLE2=Mark Wills - Places I've Never Been
TTITLE3=Mark Wills - I Do (Cherish You)
TTITLE4=Mark Wills - Don't Laugh At Me
TTITLE5=Mark Wills - Wish You Were Here
TTITLE6=Mark Wills - She's In Love
TTITLE7=Mark Wills - Back At One
TTITLE8=Mark Wills - Almost Doesn't Count
TTITLE9=Mark Wills - I Want To Know (Everything There Is To Know About You)
TTITLE10=Mark Wills - Loving Every Minute
TTITLE11=Mark Wills - The Balloon Song
TTITLE12=Mark Wills with Jamie O'Neal - I'm Not Gonna Do Anything Without You
TTITLE13=Mark Wills - 19 Somethin'
TTITLE14=Mark Wills - When You Think Of Me
TTITLE15=Mark Wills - And The Crowd Goes Wild
TTITLE16=Mark Wills - What Hurts The Most
TTITLE17=Mark Wills - That's A Woman
EXTD=
EXTT0=
EXTT1=
EXTT2=
EXTT3=
EXTT4=
EXTT5=
EXTT6=
EXTT7=
EXTT8=
EXTT9=
EXTT10=
EXTT11=
EXTT12=
EXTT13=
EXTT14=
EXTT15=
EXTT16=
EXTT17=
PLAYORDER=
